<svg version="1.1" xmlns="http://www.w3.org/2000/svg" viewBox="0 0 2739.0625 1447.9765625" width="2739.0625" height="1447.9765625" filter="invert(93%) hue-rotate(180deg)">
  <!-- svg-source:excalidraw -->
  
  <defs>
    <style>
      @font-face {
        font-family: "Virgil";
        src: url("https://excalidraw.com/Virgil.woff2");
      }
      @font-face {
        font-family: "Cascadia";
        src: url("https://excalidraw.com/Cascadia.woff2");
      }
    </style>
  </defs>
  <rect x="0" y="0" width="2739.0625" height="1447.9765625" fill="#ffffff"></rect><g stroke-linecap="round" transform="translate(464.265625 53.62109375) rotate(0 271.82421875 42.892578125)"><path d="M-0.65 0.43 C156.55 1.53, 311.92 0.79, 543.64 -0.69 M0.26 -0.36 C170.81 1.35, 341.89 1.31, 543.39 -0.27 M543.45 -0.18 C543.88 27.11, 543.14 54.72, 544.12 85.88 M543.29 -0.49 C544.55 26.5, 543.04 54.97, 544.48 84.96 M543.28 85.47 C422.26 85.37, 301.25 84.77, 0.78 86.04 M543.47 85.92 C382.96 84.63, 222.84 84.74, -0.39 85.7 M-0.85 85.73 C-2.5 56.49, 1.29 28.82, 0.81 0.49 M0.97 85.87 C-0.14 54.96, -0.37 21.6, -0.42 -0.51" stroke="#000000" stroke-width="1" fill="none"></path></g><g transform="translate(539.59765625 81.97265625) rotate(0 212.5 12.5)"><text x="0" y="18" font-family="Virgil, Segoe UI Emoji" font-size="20px" fill="#000000" text-anchor="start" style="white-space: pre;" direction="ltr">Application generates the single sign on link</text></g><g stroke-linecap="round" transform="translate(1146.1328125 46.37890625) rotate(0 286.841796875 43.78525040497834)"><path d="M-0.31 -0.35 C152.94 -2.34, 305.18 -1.73, 573.16 0.67 M-0.18 0.07 C168.54 -1.24, 337.52 -1.5, 573.39 0.11 M573.95 -0.58 C571.75 30.65, 572.3 61.19, 574.68 88.58 M574.57 -0.93 C573.86 20.68, 575.02 39.77, 574.19 87.5 M574.02 87.05 C406.14 85.56, 236.78 86.32, 0.52 87.07 M573.72 87.22 C437.02 87.17, 300.7 87.24, -0.16 87.88 M1.32 89.38 C0.84 58.57, -0.75 31.58, -1.41 0.84 M-0.91 88.14 C-0.16 60.96, -0.33 35.08, 0.93 -0.77" stroke="#000000" stroke-width="1" fill="none"></path></g><g transform="translate(1203.4646384996067 79.7813713691279) rotate(0 200.14444373686558 11.690680124816907)"><text x="0" y="16.38136024963382" font-family="Virgil, Segoe UI Emoji" font-size="18.705088199707053px" fill="#000000" text-anchor="start" style="white-space: pre;" direction="ltr">Link is registered in the database as valid</text></g><g stroke-linecap="round" transform="translate(1891.44140625 54.26171875) rotate(0 320.017578125 39.3984375)"><path d="M-0.54 0.61 C162.24 -1.92, 323.66 -2.34, 640.81 -0.76 M0.17 0.33 C182.44 1.41, 365.52 1.57, 640.32 -0.02 M640.87 0 C641.51 25.67, 638.23 46.98, 640.03 78.41 M639.98 0.56 C638.6 28.61, 640.38 58.01, 640.57 78.02 M639.81 79.21 C407.57 78.16, 175.9 78.21, -0.63 78.46 M639.76 79.1 C413.08 79.04, 186.25 79.06, -0.34 78.63 M1.5 78.74 C-1.21 57.89, -0.09 42.34, -1.44 1.09 M-0.62 79.57 C0.31 54.06, 0.12 30.71, -1 0.65" stroke="#000000" stroke-width="1" fill="none"></path></g><g transform="translate(1913.67578125 82.31640625) rotate(0 299.5 12.5)"><text x="0" y="18" font-family="Virgil, Segoe UI Emoji" font-size="20px" fill="#000000" text-anchor="start" style="white-space: pre;" direction="ltr">User clicks on the link and session is created in the browser</text></g><g stroke-linecap="round" transform="translate(1635.0390625 925.46484375) rotate(0 386.85546875 40.595703125)"><path d="M-0.27 -0.24 C170.24 1.6, 340.01 1.65, 773.36 0.39 M0.03 -0.3 C186.53 -2.05, 373.61 -1.96, 773.62 -0.1 M775.56 1.72 C773.04 27.16, 773.07 53.8, 772.16 82.71 M774.18 -0.32 C773.94 19.44, 773.95 39.76, 774.13 81.93 M773.11 81.11 C520.78 81.37, 269.71 80.8, 0.74 80.46 M773.64 81.1 C585.76 80.6, 398.13 80.23, 0.32 81.1 M0.63 81.65 C-0.19 63.58, 2.28 44.4, 1.7 0.05 M-0.85 81.02 C-0.67 51.96, 0.11 22.62, 0.13 0.75" stroke="#000000" stroke-width="1" fill="none"></path></g><g transform="translate(1778.65234375 941.05078125) rotate(0 253.5 12.5)"><text x="0" y="18" font-family="Virgil, Segoe UI Emoji" font-size="20px" fill="#000000" text-anchor="start" style="white-space: pre;" direction="ltr">Link is invalidated and deleted from the database.</text></g><g stroke-linecap="round"><g transform="translate(665.203885219713 142.90234375) rotate(0 -0.06048986561381753 87.00794087261428)"><path d="M-0.2 -0.67 C0.03 28.38, 1.51 144.4, 1.64 173.2 M-1.76 1.6 C-1.67 30.93, 0.73 146.15, 0.94 174.68" stroke="#000000" stroke-width="1" fill="none"></path></g><g transform="translate(665.203885219713 142.90234375) rotate(0 -0.06048986561381753 87.00794087261428)"><path d="M-10.85 147.43 C-6.74 154.67, -5.13 164.58, 0.89 175.49 M-10.52 146.89 C-7.15 153.46, -4.93 158.18, 0.25 175.55" stroke="#000000" stroke-width="1" fill="none"></path></g><g transform="translate(665.203885219713 142.90234375) rotate(0 -0.06048986561381753 87.00794087261428)"><path d="M9.67 147.13 C7.19 154.43, 2.22 164.44, 0.89 175.49 M10 146.58 C9.03 153.24, 6.91 158.03, 0.25 175.55" stroke="#000000" stroke-width="1" fill="none"></path></g></g><g stroke-linecap="round" transform="translate(494.9140625 328.84375) rotate(0 186.958984375 98.9453125)"><path d="M0.89 1.06 C140.32 -0.3, 282.19 1.12, 373.63 0.13 M-0.03 -0.02 C75.66 -0.71, 151.63 -0.97, 373.43 0.21 M373.7 -0.78 C370.45 49.41, 373.95 97.15, 372.01 198.88 M374.74 -0.54 C376.2 53.55, 375.31 106.45, 373.97 198.38 M373.35 196.94 C238.96 195.78, 105.44 197.42, -0.57 198.6 M373.47 198.35 C261.45 196.21, 148.54 196.14, 0.6 197.78 M-1.53 197.08 C-1.64 153.85, -0.09 104.72, -0.87 0.69 M0.62 198.24 C-0.99 128.84, -1.9 59.98, -0.63 0.48" stroke="#000000" stroke-width="1" fill="none"></path></g><g transform="translate(519.59765625 405.6171875) rotate(0 167.5 25)"><text x="0" y="18" font-family="Virgil, Segoe UI Emoji" font-size="20px" fill="#000000" text-anchor="start" style="white-space: pre;" direction="ltr">Link is generated from a function.</text><text x="0" y="43" font-family="Virgil, Segoe UI Emoji" font-size="20px" fill="#000000" text-anchor="start" style="white-space: pre;" direction="ltr"></text></g><g stroke-linecap="round"><g transform="translate(1414.4921875 135.6640625) rotate(0 -0.40385734491508174 75.53031865478494)"><path d="M-1.19 0.37 C-1.23 25.52, 0.28 125.4, 0.14 150.55 M0.38 -0.48 C0.24 24.82, -0.26 126.07, -0.27 151.54" stroke="#000000" stroke-width="1" fill="none"></path></g><g transform="translate(1414.4921875 135.6640625) rotate(0 -0.40385734491508174 75.53031865478494)"><path d="M-9.83 125.01 C-8.88 130.89, -4.37 143.69, -1.22 151.04 M-10.85 123.39 C-8.09 133.68, -3.02 141.68, -0.84 150.72" stroke="#000000" stroke-width="1" fill="none"></path></g><g transform="translate(1414.4921875 135.6640625) rotate(0 -0.40385734491508174 75.53031865478494)"><path d="M10.69 125.07 C4.84 130.72, 2.54 143.51, -1.22 151.04 M9.67 123.45 C5.43 133.88, 3.48 141.86, -0.84 150.72" stroke="#000000" stroke-width="1" fill="none"></path></g></g><g stroke-linecap="round" transform="translate(1215.828125 302.890625) rotate(0 204.62890625 93.677734375)"><path d="M-0.33 0.03 C127.97 0.15, 257.01 -1.54, 408.45 0.9 M-0.27 0.49 C98.3 1.14, 197.21 1.26, 408.84 0.38 M408.22 1.26 C412.4 74.66, 409.31 150.25, 409.22 186.35 M409.22 -0.95 C411.07 38.49, 410.6 78.02, 409.34 187.27 M409.28 188.29 C252.26 188.46, 95.36 187.34, -0.64 187.62 M408.72 187.64 C291.91 185.46, 174.68 186.32, 0.24 187.67 M0.92 189.11 C-1.43 136.39, -0.07 85.44, 0.43 1.21 M-0.91 188.21 C-0.8 116.46, -0.72 47.77, -0.03 0.62" stroke="#000000" stroke-width="1" fill="none"></path></g><g transform="translate(1257.6875 330.9765625) rotate(0 144.5 25)"><text x="0" y="18" font-family="Virgil, Segoe UI Emoji" font-size="20px" fill="#000000" text-anchor="start" style="white-space: pre;" direction="ltr">Link is added to a database</text><text x="0" y="43" font-family="Virgil, Segoe UI Emoji" font-size="20px" fill="#000000" text-anchor="start" style="white-space: pre;" direction="ltr">collection </text></g><g stroke-linecap="round"><g transform="translate(2000.56640625 1005.734375) rotate(0 -1.1873275501366152 66.55745009979705)"><path d="M-0.22 0.54 C-0.3 22.89, -1.11 111.41, -1.35 133.34 M-1.8 -0.22 C-1.93 21.8, -2.04 109.13, -2.15 131.32" stroke="#000000" stroke-width="1" fill="none"></path></g><g transform="translate(2000.56640625 1005.734375) rotate(0 -1.1873275501366152 66.55745009979705)"><path d="M-11.43 103.57 C-9.86 109.45, -9.58 115.25, -3.39 130.4 M-11.93 103.07 C-8.1 113.98, -5.34 124.39, -2.6 130.35" stroke="#000000" stroke-width="1" fill="none"></path></g><g transform="translate(2000.56640625 1005.734375) rotate(0 -1.1873275501366152 66.55745009979705)"><path d="M9.09 103.63 C6 109.46, 1.62 115.25, -3.39 130.4 M8.59 103.13 C4.5 114.09, -0.67 124.47, -2.6 130.35" stroke="#000000" stroke-width="1" fill="none"></path></g></g><g stroke-linecap="round" transform="translate(1825.3359375 1140.7578125) rotate(0 210.638671875 65.2578125)"><path d="M0.43 0.39 C167.51 0.08, 335.52 -0.99, 421.89 0.83 M0.16 0.27 C155.85 -2.11, 311.89 -2.3, 421.57 0.23 M423.15 -0.35 C421.87 34.8, 421.5 68.05, 422.7 129.82 M421.66 0.23 C420.47 42.44, 421.2 84.25, 420.62 130.05 M421.07 131.2 C305.2 129.91, 187.27 129.79, -0.08 130.76 M421.27 130.42 C318 127.97, 214.59 128.22, 0.51 130.19 M0.74 128.58 C2.94 81.06, 2.24 30.2, 0.97 -1.05 M0.24 130.52 C0.65 94.06, 0.94 57.3, 0.37 0.76" stroke="#000000" stroke-width="1" fill="none"></path></g><g transform="translate(1864.1796875 1173.015625) rotate(0 173.5 12.5)"><text x="0" y="18" font-family="Virgil, Segoe UI Emoji" font-size="20px" fill="#000000" text-anchor="start" style="white-space: pre;" direction="ltr">Link is deleted from the database.</text></g><g stroke-linecap="round"><g transform="translate(2172.53125 135.26953125) rotate(0 0.5535049427314789 52.11191875249614)"><path d="M1.04 -0.61 C1.13 16.63, 1.1 85.92, 1.01 103.43 M0.13 1.68 C0.01 19.1, 0.13 88.03, 0.01 104.84" stroke="#000000" stroke-width="1" fill="none"></path></g><g transform="translate(2172.53125 135.26953125) rotate(0 0.5535049427314789 52.11191875249614)"><path d="M-11.21 76.46 C-7.14 85.13, -1.97 96.89, 1.31 104.57 M-9.48 75.99 C-6.86 84.36, -4.3 90.98, 0.05 104.24" stroke="#000000" stroke-width="1" fill="none"></path></g><g transform="translate(2172.53125 135.26953125) rotate(0 0.5535049427314789 52.11191875249614)"><path d="M9.31 76.5 C6.39 85.33, 4.58 97.08, 1.31 104.57 M11.04 76.03 C8.28 84.57, 5.46 91.17, 0.05 104.24" stroke="#000000" stroke-width="1" fill="none"></path></g></g><g stroke-linecap="round" transform="translate(1924.78515625 252.7578125) rotate(0 282.12109375 74.7265625)"><path d="M-0.39 -0.57 C161.99 -1.38, 321.87 -1.24, 564.77 -0.44 M0.11 -0.39 C117.8 -1.41, 234.75 -1.87, 564.15 0.05 M563.13 -1.34 C563.16 48.44, 563.57 100.82, 565.11 149.33 M564.76 -0.72 C563.64 45.46, 563.57 90.55, 563.52 149.24 M564.75 149.08 C362.82 148.72, 162.17 147.53, -0.61 149.59 M564.23 149.8 C433.92 147.3, 304.1 147.31, -0.39 149.33 M1.7 149.35 C1.79 95.39, -0.1 38.54, 0.45 0.92 M0.1 149.35 C1.72 93.4, 2.15 38.99, -0.15 0.46" stroke="#000000" stroke-width="1" fill="none"></path></g><g transform="translate(1958.6875 284.9765625) rotate(0 256 37.5)"><text x="0" y="18" font-family="Virgil, Segoe UI Emoji" font-size="20px" fill="#000000" text-anchor="start" style="white-space: pre;" direction="ltr">Application checks if the token passed from the link</text><text x="0" y="43" font-family="Virgil, Segoe UI Emoji" font-size="20px" fill="#000000" text-anchor="start" style="white-space: pre;" direction="ltr">is present in the database before proceeding to</text><text x="0" y="68" font-family="Virgil, Segoe UI Emoji" font-size="20px" fill="#000000" text-anchor="start" style="white-space: pre;" direction="ltr">create a valid session</text></g><g stroke-linecap="round"><g transform="translate(2172.7734375 403.6484375) rotate(0 2.138158296784468 60.404011835013534)"><path d="M0.94 0.3 C1.46 20.54, 1.83 101.27, 2.07 121.4 M-0.02 -0.59 C0.95 19.32, 4.07 99.73, 4.3 119.66" stroke="#000000" stroke-width="1" fill="none"></path></g><g transform="translate(2172.7734375 403.6484375) rotate(0 2.138158296784468 60.404011835013534)"><path d="M-6.23 90.21 C-3.16 96.66, -1.32 105.39, 3.19 118.62 M-6.82 91.45 C-1.83 103.51, 2.26 113.93, 4.61 120.5" stroke="#000000" stroke-width="1" fill="none"></path></g><g transform="translate(2172.7734375 403.6484375) rotate(0 2.138158296784468 60.404011835013534)"><path d="M14.28 89.65 C12.94 96.39, 10.37 105.23, 3.19 118.62 M13.69 90.88 C10.66 102.97, 6.73 113.61, 4.61 120.5" stroke="#000000" stroke-width="1" fill="none"></path></g></g><g stroke-linecap="round" transform="translate(2083.10546875 527.3125) rotate(0 94.08203125 116.955078125)"><path d="M95.51 1.77 C130.44 44.59, 164.35 91.78, 187.92 118.9 M95.39 -0.59 C122.99 36.96, 153.26 74.83, 188.11 116.7 M189.05 117.54 C152.1 161.02, 118.05 208.61, 93.96 234.43 M188.91 116.92 C163.54 147.48, 138.15 178.8, 94.75 233.76 M96.13 234.11 C65.69 199.36, 38.12 162.12, 1.07 118.39 M94.06 233.29 C75.76 209.29, 55.93 184.42, -0.43 117.48 M-1.23 118.04 C23.53 88.99, 44.25 58.57, 93.3 -0.61 M-0.66 117.79 C32.61 78.38, 65.56 38.13, 94.81 -0.92" stroke="#000000" stroke-width="1" fill="none"></path></g><g transform="translate(2109.1875 631.767578125) rotate(0 68 12.5)"><text x="68" y="18" font-family="Virgil, Segoe UI Emoji" font-size="20px" fill="#000000" text-anchor="middle" style="white-space: pre;" direction="ltr">Token exists?</text></g><g stroke-linecap="round"><g transform="translate(2082.3359375 645.21484375) rotate(0 -71.73643224491252 0.34694519826683745)"><path d="M0.97 -0.82 C-22.86 -0.67, -119.32 -0.17, -143.4 -0.15 M0.02 1.37 C-23.94 1.75, -120.37 1.27, -144.44 1.04" stroke="#000000" stroke-width="1" fill="none"></path></g><g transform="translate(2082.3359375 645.21484375) rotate(0 -71.73643224491252 0.34694519826683745)"><path d="M-117.54 -9.34 C-124.8 -6.65, -133.13 -2.61, -144.27 -0.76 M-117.18 -8.86 C-125.52 -5.64, -134.64 -2.45, -143.75 1.69" stroke="#000000" stroke-width="1" fill="none"></path></g><g transform="translate(2082.3359375 645.21484375) rotate(0 -71.73643224491252 0.34694519826683745)"><path d="M-117.68 11.19 C-124.72 8.48, -133.02 7.12, -144.27 -0.76 M-117.31 11.66 C-125.7 8.35, -134.78 5, -143.75 1.69" stroke="#000000" stroke-width="1" fill="none"></path></g></g><g stroke-linecap="round"><g transform="translate(2271.2109375 643.37109375) rotate(0 69.48411642238511 -0.28446792057945913)"><path d="M-0.36 0.36 C23.01 0.44, 116.25 0.82, 139.33 0.7 M1.65 -0.5 C24.94 -0.81, 115.3 -1.44, 138.42 -1.26" stroke="#000000" stroke-width="1" fill="none"></path></g><g transform="translate(2271.2109375 643.37109375) rotate(0 69.48411642238511 -0.28446792057945913)"><path d="M110.83 9.14 C117.12 4.81, 121.8 2.62, 138.67 -2.57 M109.68 9.58 C119.72 5.81, 129.33 2.28, 139.22 -1.94" stroke="#000000" stroke-width="1" fill="none"></path></g><g transform="translate(2271.2109375 643.37109375) rotate(0 69.48411642238511 -0.28446792057945913)"><path d="M110.82 -11.38 C117.15 -11.05, 121.82 -8.57, 138.67 -2.57 M109.66 -10.94 C119.72 -8.02, 129.34 -4.86, 139.22 -1.94" stroke="#000000" stroke-width="1" fill="none"></path></g></g><g transform="translate(2004.6875 602.9765625) rotate(0 19 12.5)"><text x="0" y="18" font-family="Virgil, Segoe UI Emoji" font-size="20px" fill="#000000" text-anchor="start" style="white-space: pre;" direction="ltr">Yes.</text></g><g transform="translate(2316.69140625 599.046875) rotate(0 14.5 12.5)"><text x="0" y="18" font-family="Virgil, Segoe UI Emoji" font-size="20px" fill="#000000" text-anchor="start" style="white-space: pre;" direction="ltr">No.</text></g><g stroke-linecap="round"><g transform="translate(1938.83984375 646.875) rotate(0 3.9620015494524523 138.77533556208476)"><path d="M-0.78 -0.5 C0.67 46.09, 6.96 232.81, 8.7 279.37 M1.02 -1.82 C2.3 44.47, 6.34 231.33, 7.74 277.75" stroke="#000000" stroke-width="1" fill="none"></path></g></g><g stroke-linecap="round" transform="translate(2407.41015625 622.80078125) rotate(0 160.826171875 27.73828125)"><path d="M0.86 1.12 C127.96 -0.49, 253.37 1.46, 322.95 -0.71 M0.23 -0.33 C89.65 -0.05, 178.28 0.57, 322.27 -0.07 M322.2 0.97 C323.22 14.62, 321.67 30.9, 321.27 56.13 M321.81 -0.21 C321.68 10.59, 322.88 21.79, 321.06 56.24 M321.77 56.25 C244.4 56.5, 169.29 57.23, 0.13 55.56 M321.02 55.32 C193 56.54, 66.15 57.07, 0.64 55.22 M0.94 54.48 C0.71 36.16, 0.78 16.89, 1.31 1.19 M-0.71 55.68 C-0.56 42.1, -0.38 30.9, 0.94 0.56" stroke="#000000" stroke-width="1" fill="none"></path></g><g transform="translate(2449.6875 638.9765625) rotate(0 113 12.5)"><text x="0" y="18" font-family="Virgil, Segoe UI Emoji" font-size="20px" fill="#000000" text-anchor="start" style="white-space: pre;" direction="ltr">Error response is sent.</text></g><g stroke-linecap="round"><g transform="translate(1006.48828125 93.12890625) rotate(0 70.27590068282097 -2.182079113274824)"><path d="M1.06 -0.26 C24.36 -1.1, 117.19 -3.43, 140.39 -4.1 M0.16 -1.44 C23.25 -2.24, 116.27 -2.7, 139.49 -3.06" stroke="#000000" stroke-width="1" fill="none"></path></g></g><g stroke-linecap="round"><g transform="translate(1721.82421875 91.8515625) rotate(0 85.01287716749118 0.08559931134377052)"><path d="M0.11 0.53 C28.11 0.36, 140.78 -0.62, 169.08 -0.61 M-1.29 -0.23 C26.99 -0.26, 142.91 0.93, 171.32 0.77" stroke="#000000" stroke-width="1" fill="none"></path></g></g><g stroke-linecap="round" transform="translate(1924.55078125 1350.26953125) rotate(0 101.943359375 35.98828125)"><path d="M119.27 0.89 C133.27 0.91, 149.55 3.06, 161.54 5.9 C173.53 8.74, 184.32 13.19, 191.23 17.94 C198.13 22.7, 202.18 28.96, 202.95 34.43 C203.73 39.9, 201.62 45.9, 195.85 50.76 C190.08 55.63, 179.63 60.38, 168.33 63.64 C157.04 66.91, 142.26 68.96, 128.1 70.35 C113.95 71.75, 97.8 72.98, 83.39 72.01 C68.98 71.04, 53.54 67.64, 41.66 64.52 C29.78 61.4, 18.99 57.76, 12.11 53.29 C5.22 48.82, 0.78 43.04, 0.35 37.69 C-0.09 32.35, 3.54 26.24, 9.49 21.23 C15.43 16.22, 24.86 11.02, 36.02 7.62 C47.18 4.23, 61.65 1.87, 76.46 0.86 C91.27 -0.15, 116.15 1.5, 124.86 1.54 C133.57 1.58, 129.05 0.76, 128.7 1.11 M65.67 2.17 C78.31 0.1, 97.51 -0.5, 112.58 0.18 C127.66 0.86, 143.85 3.63, 156.1 6.26 C168.35 8.88, 178.43 11.84, 186.09 15.93 C193.76 20.02, 200.17 25.55, 202.09 30.8 C204.02 36.06, 202.33 42.34, 197.63 47.46 C192.93 52.59, 183.89 57.98, 173.87 61.54 C163.85 65.11, 151.18 67.05, 137.5 68.85 C123.82 70.65, 106.69 72.49, 91.79 72.35 C76.88 72.21, 60.7 71.02, 48.08 68.01 C35.47 65.01, 24.08 58.73, 16.08 54.33 C8.09 49.93, 1.98 46.5, 0.12 41.61 C-1.74 36.71, -0.07 30.02, 4.9 24.95 C9.88 19.87, 19.85 15.17, 29.96 11.14 C40.07 7.12, 59.18 2.4, 65.58 0.79 C71.99 -0.82, 67.59 0.73, 68.38 1.48" stroke="#000000" stroke-width="1" fill="none"></path></g><g transform="translate(1992.6875 1387.9765625) rotate(0 20 25)"><text x="0" y="18" font-family="Virgil, Segoe UI Emoji" font-size="20px" fill="#000000" text-anchor="start" style="white-space: pre;" direction="ltr">End.</text><text x="0" y="43" font-family="Virgil, Segoe UI Emoji" font-size="20px" fill="#000000" text-anchor="start" style="white-space: pre;" direction="ltr"></text></g><g stroke-linecap="round"><g transform="translate(2012.04296875 1269.921875) rotate(0 -0.2957494241236418 39.33819817245933)"><path d="M0.47 -0.46 C0.49 12.87, -0.11 66.06, -0.01 79.36 M-0.75 -1.75 C-0.88 11.77, -1.23 66.76, -0.96 80.42" stroke="#000000" stroke-width="1" fill="none"></path></g></g><g stroke-linecap="round"><g transform="translate(2594.69921875 682.23046875) rotate(0 -0.12152613475927865 342.3600411409233)"><path d="M-1.16 0.85 C-1.14 114.83, 0.67 569.51, 0.92 683.3 M0.43 0.25 C0.19 114.42, -0.59 570.4, -0.2 684.47" stroke="#000000" stroke-width="1" fill="none"></path></g></g><g stroke-linecap="round"><g transform="translate(2598.03125 1363.9375) rotate(0 -233.3168954723792 10.420517697245828)"><path d="M-0.36 0.7 C-78.05 4.05, -389.45 17.76, -467.15 20.82 M1.65 0.02 C-76.14 2.99, -390.15 15.94, -468.28 19.27" stroke="#000000" stroke-width="1" fill="none"></path></g></g><g stroke-linecap="round" transform="translate(10 10) rotate(0 59.62109375 50.111328125)"><path d="M37.95 3.85 C46.82 0.15, 60.33 -1.04, 70.39 0.3 C80.45 1.64, 90.85 6.21, 98.33 11.89 C105.8 17.57, 111.94 26.42, 115.23 34.41 C118.52 42.39, 119.78 51.78, 118.06 59.8 C116.34 67.81, 111.67 76.12, 104.9 82.5 C98.13 88.88, 87.22 95.21, 77.44 98.09 C67.66 100.98, 55.97 101.78, 46.23 99.8 C36.49 97.82, 26.28 92.17, 19.02 86.23 C11.76 80.29, 5.61 72.15, 2.69 64.18 C-0.24 56.21, -0.75 46.67, 1.47 38.4 C3.7 30.13, 9.27 20.56, 16.03 14.56 C22.8 8.56, 36.97 4.27, 42.06 2.41 C47.15 0.54, 46.19 2.64, 46.57 3.37 M41.09 3.32 C50.35 0.33, 64.39 0.65, 74.21 2.47 C84.03 4.29, 92.88 8.49, 100 14.23 C107.12 19.98, 113.99 28.83, 116.91 36.96 C119.83 45.09, 119.87 55.19, 117.53 63.03 C115.19 70.87, 110.05 77.99, 102.88 84 C95.7 90.02, 84.41 96.54, 74.46 99.11 C64.52 101.67, 52.88 101.87, 43.2 99.41 C33.51 96.94, 23.18 90.55, 16.36 84.32 C9.53 78.09, 4.44 69.92, 2.25 62.04 C0.06 54.16, 0.51 44.92, 3.22 37.06 C5.93 29.19, 12.31 20.77, 18.5 14.84 C24.7 8.9, 36.41 3.32, 40.38 1.46 C44.35 -0.39, 42.02 2.7, 42.32 3.72" stroke="#000000" stroke-width="1" fill="none"></path></g><g transform="translate(38.10546875 34.798828125) rotate(0 31 25)"><text x="31" y="18" font-family="Virgil, Segoe UI Emoji" font-size="20px" fill="#000000" text-anchor="middle" style="white-space: pre;" direction="ltr">Start.</text><text x="31" y="43" font-family="Virgil, Segoe UI Emoji" font-size="20px" fill="#000000" text-anchor="middle" style="white-space: pre;" direction="ltr"></text></g><g stroke-linecap="round" transform="translate(181.56640625 20.16796875) rotate(0 107.271484375 51.76953125)"><path d="M0.12 -0.91 C45.47 -0.76, 94.44 -0.09, 216.06 -0.12 M-0.85 -0.35 C79.88 -1.57, 159.83 -1.01, 214.66 0.14 M215.35 1.11 C214.37 38.69, 215.13 76.26, 216.18 103.28 M213.84 0.1 C214.07 28.71, 213.96 57.67, 213.99 103.21 M213.11 103.12 C133.6 104.12, 55.28 105.89, 1.08 104.52 M214.06 103 C170.64 101.63, 126.88 101.79, -0.75 103.02 M-1.28 102.19 C-1.3 63.49, 0.22 20.65, 0.27 -1.73 M-0.14 103.26 C0.22 65.06, 0.1 27.98, 0.43 -0.55" stroke="#000000" stroke-width="1" fill="none"></path></g><g transform="translate(204.6875 48.9765625) rotate(0 67.5 25)"><text x="0" y="18" font-family="Virgil, Segoe UI Emoji" font-size="20px" fill="#000000" text-anchor="start" style="white-space: pre;" direction="ltr">User clicks on</text><text x="0" y="43" font-family="Virgil, Segoe UI Emoji" font-size="20px" fill="#000000" text-anchor="start" style="white-space: pre;" direction="ltr">Sign in.</text></g><g stroke-linecap="round"><g transform="translate(128.875 63.40234375) rotate(0 26.395801835968143 0.4882365190098028)"><path d="M1.18 -0.43 C10.01 -0.08, 43.83 2.26, 52.45 2.68 M0.34 -1.7 C9.06 -1.76, 42.84 -0.01, 51.51 0.84" stroke="#000000" stroke-width="1" fill="none"></path></g></g><g stroke-linecap="round"><g transform="translate(397.93359375 79.609375) rotate(0 33.354187250882376 5.153148213238467)"><path d="M-0.48 0.04 C10.72 1.91, 55.81 9.6, 67.19 11.29 M1.47 -0.98 C12.51 0.51, 55.27 7.4, 66.25 9.42" stroke="#000000" stroke-width="1" fill="none"></path></g></g></svg>